solid OpenSCAD_Model
  facet normal -1 0 0
    outer loop
      vertex -0.5 16.25 28.5
      vertex -0.5 26 0
      vertex -0.5 9.25 28.5
    endloop
  endfacet
  facet normal -1 0 0
    outer loop
      vertex -0.5 16.25 31.5
      vertex -0.5 -0.5 60.5
      vertex -0.5 26 60.5
    endloop
  endfacet
  facet normal -1 0 0
    outer loop
      vertex -0.5 -0.5 0
      vertex -0.5 -0.5 60.5
      vertex -0.5 9.25 31.5
    endloop
  endfacet
  facet normal -1 0 0
    outer loop
      vertex -0.5 -0.5 0
      vertex -0.5 9.25 31.5
      vertex -0.5 9.25 28.5
    endloop
  endfacet
  facet normal -1 0 0
    outer loop
      vertex -0.5 -0.5 0
      vertex -0.5 9.25 28.5
      vertex -0.5 26 0
    endloop
  endfacet
  facet normal -1 0 0
    outer loop
      vertex -0.5 26 0
      vertex -0.5 16.25 28.5
      vertex -0.5 26 60.5
    endloop
  endfacet
  facet normal -1 0 0
    outer loop
      vertex -0.5 16.25 28.5
      vertex -0.5 16.25 31.5
      vertex -0.5 26 60.5
    endloop
  endfacet
  facet normal -1 0 0
    outer loop
      vertex -0.5 9.25 31.5
      vertex -0.5 -0.5 60.5
      vertex -0.5 16.25 31.5
    endloop
  endfacet
  facet normal 0 -1 0
    outer loop
      vertex -0.5 -0.5 60.5
      vertex -0.5 -0.5 0
      vertex 26 -0.5 0
    endloop
  endfacet
  facet normal 0 -1 0
    outer loop
      vertex 26 -0.5 60.5
      vertex -0.5 -0.5 60.5
      vertex 26 -0.5 0
    endloop
  endfacet
  facet normal 0 0 -1
    outer loop
      vertex 0 0 0
      vertex 25.5 0 0
      vertex 26 -0.5 0
    endloop
  endfacet
  facet normal 0 0 -1
    outer loop
      vertex 0 25.5 0
      vertex -0.5 26 0
      vertex 26 26 0
    endloop
  endfacet
  facet normal 0 0 -1
    outer loop
      vertex -0.5 -0.5 0
      vertex -0.5 26 0
      vertex 0 25.5 0
    endloop
  endfacet
  facet normal 0 0 -1
    outer loop
      vertex 25.5 25.5 0
      vertex 0 25.5 0
      vertex 26 26 0
    endloop
  endfacet
  facet normal 0 0 -1
    outer loop
      vertex -0.5 -0.5 0
      vertex 0 25.5 0
      vertex 0 0 0
    endloop
  endfacet
  facet normal 0 0 -1
    outer loop
      vertex -0.5 -0.5 0
      vertex 0 0 0
      vertex 26 -0.5 0
    endloop
  endfacet
  facet normal 0 0 -1
    outer loop
      vertex 26 -0.5 0
      vertex 25.5 0 0
      vertex 26 26 0
    endloop
  endfacet
  facet normal 0 0 -1
    outer loop
      vertex 25.5 0 0
      vertex 25.5 25.5 0
      vertex 26 26 0
    endloop
  endfacet
  facet normal 0 1 0
    outer loop
      vertex -0.5 26 0
      vertex -0.5 26 60.5
      vertex 26 26 0
    endloop
  endfacet
  facet normal 0 1 0
    outer loop
      vertex 26 26 0
      vertex -0.5 26 60.5
      vertex 26 26 60.5
    endloop
  endfacet
  facet normal 0 0 1
    outer loop
      vertex -0.5 26 60.5
      vertex -0.5 -0.5 60.5
      vertex 26 -0.5 60.5
    endloop
  endfacet
  facet normal 0 0 1
    outer loop
      vertex 26 26 60.5
      vertex -0.5 26 60.5
      vertex 26 -0.5 60.5
    endloop
  endfacet
  facet normal 0 1 0
    outer loop
      vertex 0 9.25 31.5
      vertex 0 9.25 28.5
      vertex -0.5 9.25 31.5
    endloop
  endfacet
  facet normal 0 1 0
    outer loop
      vertex -0.5 9.25 31.5
      vertex 0 9.25 28.5
      vertex -0.5 9.25 28.5
    endloop
  endfacet
  facet normal 0 0 -1
    outer loop
      vertex 0 16.25 31.5
      vertex 0 9.25 31.5
      vertex -0.5 16.25 31.5
    endloop
  endfacet
  facet normal 0 0 -1
    outer loop
      vertex -0.5 16.25 31.5
      vertex 0 9.25 31.5
      vertex -0.5 9.25 31.5
    endloop
  endfacet
  facet normal 0 -1 0
    outer loop
      vertex 0 16.25 28.5
      vertex 0 16.25 31.5
      vertex -0.5 16.25 31.5
    endloop
  endfacet
  facet normal 0 -1 0
    outer loop
      vertex -0.5 16.25 28.5
      vertex 0 16.25 28.5
      vertex -0.5 16.25 31.5
    endloop
  endfacet
  facet normal 0 0 1
    outer loop
      vertex 0 9.25 28.5
      vertex 0 16.25 28.5
      vertex -0.5 16.25 28.5
    endloop
  endfacet
  facet normal 0 0 1
    outer loop
      vertex -0.5 9.25 28.5
      vertex 0 9.25 28.5
      vertex -0.5 16.25 28.5
    endloop
  endfacet
  facet normal 1 0 0
    outer loop
      vertex 26 -0.5 60.5
      vertex 26 -0.5 0
      vertex 26 26 0
    endloop
  endfacet
  facet normal 1 0 0
    outer loop
      vertex 26 26 60.5
      vertex 26 -0.5 60.5
      vertex 26 26 0
    endloop
  endfacet
  facet normal 1 0 0
    outer loop
      vertex 0 16.25 31.5
      vertex 0 25.5 58
      vertex 0 0 58
    endloop
  endfacet
  facet normal 1 0 0
    outer loop
      vertex 0 0 0
      vertex 0 9.25 31.5
      vertex 0 0 58
    endloop
  endfacet
  facet normal 1 0 0
    outer loop
      vertex 0 25.5 0
      vertex 0 25.5 58
      vertex 0 16.25 31.5
    endloop
  endfacet
  facet normal 1 0 0
    outer loop
      vertex 0 16.25 28.5
      vertex 0 9.25 28.5
      vertex 0 25.5 0
    endloop
  endfacet
  facet normal 1 0 0
    outer loop
      vertex 0 25.5 0
      vertex 0 16.25 31.5
      vertex 0 16.25 28.5
    endloop
  endfacet
  facet normal 1 0 0
    outer loop
      vertex 0 0 0
      vertex 0 9.25 28.5
      vertex 0 9.25 31.5
    endloop
  endfacet
  facet normal 1 0 0
    outer loop
      vertex 0 0 0
      vertex 0 25.5 0
      vertex 0 9.25 28.5
    endloop
  endfacet
  facet normal 1 0 0
    outer loop
      vertex 0 9.25 31.5
      vertex 0 16.25 31.5
      vertex 0 0 58
    endloop
  endfacet
  facet normal 0 -1 0
    outer loop
      vertex 25.5 25.5 0
      vertex 25.5 25.5 58
      vertex 0 25.5 58
    endloop
  endfacet
  facet normal 0 -1 0
    outer loop
      vertex 0 25.5 0
      vertex 25.5 25.5 0
      vertex 0 25.5 58
    endloop
  endfacet
  facet normal -1 0 0
    outer loop
      vertex 25.5 25.5 58
      vertex 25.5 25.5 0
      vertex 25.5 0 58
    endloop
  endfacet
  facet normal -1 0 0
    outer loop
      vertex 25.5 0 58
      vertex 25.5 25.5 0
      vertex 25.5 0 0
    endloop
  endfacet
  facet normal 0 1 0
    outer loop
      vertex 25.5 0 58
      vertex 25.5 0 0
      vertex 0 0 58
    endloop
  endfacet
  facet normal 0 1 0
    outer loop
      vertex 0 0 58
      vertex 25.5 0 0
      vertex 0 0 0
    endloop
  endfacet
  facet normal 0 0 -1
    outer loop
      vertex 15.5902 22.0106 58
      vertex 0 25.5 58
      vertex 25.5 25.5 58
    endloop
  endfacet
  facet normal 0 0 -1
    outer loop
      vertex 0 0 58
      vertex 0 25.5 58
      vertex 2.5 12.5 58
    endloop
  endfacet
  facet normal 0 0 -1
    outer loop
      vertex 0 0 58
      vertex 2.5 12.5 58
      vertex 2.71852 10.4209 58
    endloop
  endfacet
  facet normal 0 0 -1
    outer loop
      vertex 0 0 58
      vertex 2.71852 10.4209 58
      vertex 3.36454 8.43263 58
    endloop
  endfacet
  facet normal 0 0 -1
    outer loop
      vertex 0 0 58
      vertex 3.36454 8.43263 58
      vertex 4.40983 6.62215 58
    endloop
  endfacet
  facet normal 0 0 -1
    outer loop
      vertex 0 0 58
      vertex 4.40983 6.62215 58
      vertex 5.80869 5.06855 58
    endloop
  endfacet
  facet normal 0 0 -1
    outer loop
      vertex 0 0 58
      vertex 5.80869 5.06855 58
      vertex 7.5 3.83975 58
    endloop
  endfacet
  facet normal 0 0 -1
    outer loop
      vertex 0 0 58
      vertex 7.5 3.83975 58
      vertex 9.40983 2.98944 58
    endloop
  endfacet
  facet normal 0 0 -1
    outer loop
      vertex 0 0 58
      vertex 9.40983 2.98944 58
      vertex 11.4547 2.55478 58
    endloop
  endfacet
  facet normal 0 0 -1
    outer loop
      vertex 0 0 58
      vertex 11.4547 2.55478 58
      vertex 25.5 0 58
    endloop
  endfacet
  facet normal 0 0 -1
    outer loop
      vertex 15.5902 2.98944 58
      vertex 25.5 0 58
      vertex 13.5453 2.55478 58
    endloop
  endfacet
  facet normal 0 0 -1
    outer loop
      vertex 17.5 3.83975 58
      vertex 25.5 0 58
      vertex 15.5902 2.98944 58
    endloop
  endfacet
  facet normal 0 0 -1
    outer loop
      vertex 19.1913 5.06855 58
      vertex 25.5 0 58
      vertex 17.5 3.83975 58
    endloop
  endfacet
  facet normal 0 0 -1
    outer loop
      vertex 20.5902 6.62215 58
      vertex 25.5 0 58
      vertex 19.1913 5.06855 58
    endloop
  endfacet
  facet normal 0 0 -1
    outer loop
      vertex 4.40983 18.3779 58
      vertex 0 25.5 58
      vertex 5.80869 19.9314 58
    endloop
  endfacet
  facet normal 0 0 -1
    outer loop
      vertex 25.5 0 58
      vertex 20.5902 6.62215 58
      vertex 21.6355 8.43263 58
    endloop
  endfacet
  facet normal 0 0 -1
    outer loop
      vertex 25.5 0 58
      vertex 21.6355 8.43263 58
      vertex 22.2815 10.4209 58
    endloop
  endfacet
  facet normal 0 0 -1
    outer loop
      vertex 25.5 0 58
      vertex 22.2815 10.4209 58
      vertex 25.5 25.5 58
    endloop
  endfacet
  facet normal 0 0 -1
    outer loop
      vertex 22.2815 14.5791 58
      vertex 25.5 25.5 58
      vertex 22.5 12.5 58
    endloop
  endfacet
  facet normal 0 0 -1
    outer loop
      vertex 5.80869 19.9314 58
      vertex 0 25.5 58
      vertex 7.5 21.1603 58
    endloop
  endfacet
  facet normal 0 0 -1
    outer loop
      vertex 11.4547 22.4452 58
      vertex 0 25.5 58
      vertex 13.5453 22.4452 58
    endloop
  endfacet
  facet normal 0 0 -1
    outer loop
      vertex 22.2815 14.5791 58
      vertex 21.6355 16.5674 58
      vertex 25.5 25.5 58
    endloop
  endfacet
  facet normal 0 0 -1
    outer loop
      vertex 7.5 21.1603 58
      vertex 0 25.5 58
      vertex 9.40983 22.0106 58
    endloop
  endfacet
  facet normal 0 0 -1
    outer loop
      vertex 21.6355 16.5674 58
      vertex 20.5902 18.3779 58
      vertex 25.5 25.5 58
    endloop
  endfacet
  facet normal 0 0 -1
    outer loop
      vertex 20.5902 18.3779 58
      vertex 19.1913 19.9314 58
      vertex 25.5 25.5 58
    endloop
  endfacet
  facet normal 0 0 -1
    outer loop
      vertex 9.40983 22.0106 58
      vertex 0 25.5 58
      vertex 11.4547 22.4452 58
    endloop
  endfacet
  facet normal 0 0 -1
    outer loop
      vertex 19.1913 19.9314 58
      vertex 17.5 21.1603 58
      vertex 25.5 25.5 58
    endloop
  endfacet
  facet normal 0 0 -1
    outer loop
      vertex 13.5453 22.4452 58
      vertex 0 25.5 58
      vertex 15.5902 22.0106 58
    endloop
  endfacet
  facet normal 0 0 -1
    outer loop
      vertex 17.5 21.1603 58
      vertex 15.5902 22.0106 58
      vertex 25.5 25.5 58
    endloop
  endfacet
  facet normal 0 0 -1
    outer loop
      vertex 22.5 12.5 58
      vertex 25.5 25.5 58
      vertex 22.2815 10.4209 58
    endloop
  endfacet
  facet normal 0 0 -1
    outer loop
      vertex 3.36454 16.5674 58
      vertex 0 25.5 58
      vertex 4.40983 18.3779 58
    endloop
  endfacet
  facet normal 0 0 -1
    outer loop
      vertex 2.71852 14.5791 58
      vertex 0 25.5 58
      vertex 3.36454 16.5674 58
    endloop
  endfacet
  facet normal 0 0 -1
    outer loop
      vertex 2.5 12.5 58
      vertex 0 25.5 58
      vertex 2.71852 14.5791 58
    endloop
  endfacet
  facet normal 0 0 -1
    outer loop
      vertex 13.5453 2.55478 58
      vertex 25.5 0 58
      vertex 11.4547 2.55478 58
    endloop
  endfacet
  facet normal -0.994522 0.104528 0
    outer loop
      vertex 2.5 12.5 31.5
      vertex 2.5 12.5 58
      vertex 2.71852 14.5791 31.5
    endloop
  endfacet
  facet normal -0.994522 0.104528 0
    outer loop
      vertex 2.71852 14.5791 31.5
      vertex 2.5 12.5 58
      vertex 2.71852 14.5791 58
    endloop
  endfacet
  facet normal -0.994522 -0.104528 0
    outer loop
      vertex 2.5 12.5 31.5
      vertex 2.71852 10.4209 31.5
      vertex 2.5 12.5 58
    endloop
  endfacet
  facet normal -0.994522 -0.104528 0
    outer loop
      vertex 2.5 12.5 58
      vertex 2.71852 10.4209 31.5
      vertex 2.71852 10.4209 58
    endloop
  endfacet
  facet normal -0.951057 0.309017 0
    outer loop
      vertex 2.71852 14.5791 13
      vertex 2.71852 14.5791 28.5
      vertex 3.36454 16.5674 13
    endloop
  endfacet
  facet normal -0.951057 0.309017 0
    outer loop
      vertex 3.36454 16.5674 13
      vertex 2.71852 14.5791 28.5
      vertex 3.26143 16.25 28.5
    endloop
  endfacet
  facet normal -0.951057 0.309017 0
    outer loop
      vertex 3.36454 16.5674 13
      vertex 3.26143 16.25 28.5
      vertex 3.26143 16.25 31.5
    endloop
  endfacet
  facet normal -0.951057 0.309017 0
    outer loop
      vertex 3.26143 16.25 31.5
      vertex 2.71852 14.5791 31.5
      vertex 2.71852 14.5791 58
    endloop
  endfacet
  facet normal -0.951057 0.309017 0
    outer loop
      vertex 3.26143 16.25 31.5
      vertex 2.71852 14.5791 58
      vertex 3.36454 16.5674 58
    endloop
  endfacet
  facet normal -0.951057 0.309017 0
    outer loop
      vertex 3.26143 16.25 31.5
      vertex 3.36454 16.5674 58
      vertex 3.36454 16.5674 13
    endloop
  endfacet
  facet normal -0.866025 0.5 0
    outer loop
      vertex 3.36454 16.5674 13
      vertex 3.36454 16.5674 58
      vertex 4.40983 18.3779 13
    endloop
  endfacet
  facet normal -0.866025 0.5 0
    outer loop
      vertex 4.40983 18.3779 13
      vertex 3.36454 16.5674 58
      vertex 4.40983 18.3779 58
    endloop
  endfacet
  facet normal -0.743145 0.669131 0
    outer loop
      vertex 4.40983 18.3779 13
      vertex 4.40983 18.3779 58
      vertex 5.80869 19.9314 13
    endloop
  endfacet
  facet normal -0.743145 0.669131 0
    outer loop
      vertex 5.80869 19.9314 13
      vertex 4.40983 18.3779 58
      vertex 5.80869 19.9314 58
    endloop
  endfacet
  facet normal -0.587785 0.809017 0
    outer loop
      vertex 5.80869 19.9314 13
      vertex 5.80869 19.9314 58
      vertex 7.5 21.1603 13
    endloop
  endfacet
  facet normal -0.587785 0.809017 0
    outer loop
      vertex 7.5 21.1603 13
      vertex 5.80869 19.9314 58
      vertex 7.5 21.1603 58
    endloop
  endfacet
  facet normal -0.406737 0.913545 0
    outer loop
      vertex 7.5 21.1603 13
      vertex 7.5 21.1603 58
      vertex 9.40983 22.0106 13
    endloop
  endfacet
  facet normal -0.406737 0.913545 0
    outer loop
      vertex 9.40983 22.0106 13
      vertex 7.5 21.1603 58
      vertex 9.40983 22.0106 58
    endloop
  endfacet
  facet normal -0.207912 0.978148 0
    outer loop
      vertex 9.40983 22.0106 13
      vertex 9.40983 22.0106 58
      vertex 11.4547 22.4452 13
    endloop
  endfacet
  facet normal -0.207912 0.978148 0
    outer loop
      vertex 11.4547 22.4452 13
      vertex 9.40983 22.0106 58
      vertex 11.4547 22.4452 58
    endloop
  endfacet
  facet normal 0 1 0
    outer loop
      vertex 11.4547 22.4452 13
      vertex 11.4547 22.4452 58
      vertex 13.5453 22.4452 13
    endloop
  endfacet
  facet normal 0 1 0
    outer loop
      vertex 13.5453 22.4452 13
      vertex 11.4547 22.4452 58
      vertex 13.5453 22.4452 58
    endloop
  endfacet
  facet normal 0.207912 0.978148 0
    outer loop
      vertex 13.5453 22.4452 13
      vertex 13.5453 22.4452 58
      vertex 15.5902 22.0106 13
    endloop
  endfacet
  facet normal 0.207912 0.978148 0
    outer loop
      vertex 15.5902 22.0106 13
      vertex 13.5453 22.4452 58
      vertex 15.5902 22.0106 58
    endloop
  endfacet
  facet normal 0.406737 0.913545 0
    outer loop
      vertex 15.5902 22.0106 13
      vertex 15.5902 22.0106 58
      vertex 17.5 21.1603 13
    endloop
  endfacet
  facet normal 0.406737 0.913545 0
    outer loop
      vertex 17.5 21.1603 13
      vertex 15.5902 22.0106 58
      vertex 17.5 21.1603 58
    endloop
  endfacet
  facet normal 0.587785 0.809017 0
    outer loop
      vertex 17.5 21.1603 13
      vertex 17.5 21.1603 58
      vertex 19.1913 19.9314 13
    endloop
  endfacet
  facet normal 0.587785 0.809017 0
    outer loop
      vertex 19.1913 19.9314 13
      vertex 17.5 21.1603 58
      vertex 19.1913 19.9314 58
    endloop
  endfacet
  facet normal 0.743145 0.669131 0
    outer loop
      vertex 20.5902 18.3779 13
      vertex 19.1913 19.9314 13
      vertex 19.1913 19.9314 58
    endloop
  endfacet
  facet normal 0.743145 0.669131 0
    outer loop
      vertex 20.5902 18.3779 58
      vertex 20.5902 18.3779 13
      vertex 19.1913 19.9314 58
    endloop
  endfacet
  facet normal 0.866025 0.5 0
    outer loop
      vertex 21.6355 16.5674 13
      vertex 20.5902 18.3779 13
      vertex 20.5902 18.3779 58
    endloop
  endfacet
  facet normal 0.866025 0.5 0
    outer loop
      vertex 21.6355 16.5674 58
      vertex 21.6355 16.5674 13
      vertex 20.5902 18.3779 58
    endloop
  endfacet
  facet normal 0.951057 0.309017 0
    outer loop
      vertex 22.2815 14.5791 13
      vertex 21.6355 16.5674 13
      vertex 21.6355 16.5674 58
    endloop
  endfacet
  facet normal 0.951057 0.309017 0
    outer loop
      vertex 22.2815 14.5791 58
      vertex 22.2815 14.5791 13
      vertex 21.6355 16.5674 58
    endloop
  endfacet
  facet normal 0.994522 0.104528 0
    outer loop
      vertex 22.5 12.5 13
      vertex 22.2815 14.5791 13
      vertex 22.2815 14.5791 58
    endloop
  endfacet
  facet normal 0.994522 0.104528 0
    outer loop
      vertex 22.5 12.5 58
      vertex 22.5 12.5 13
      vertex 22.2815 14.5791 58
    endloop
  endfacet
  facet normal 0.994522 -0.104528 0
    outer loop
      vertex 22.2815 10.4209 58
      vertex 22.2815 10.4209 13
      vertex 22.5 12.5 13
    endloop
  endfacet
  facet normal 0.994522 -0.104528 0
    outer loop
      vertex 22.5 12.5 58
      vertex 22.2815 10.4209 58
      vertex 22.5 12.5 13
    endloop
  endfacet
  facet normal 0.951057 -0.309017 0
    outer loop
      vertex 21.6355 8.43263 58
      vertex 21.6355 8.43263 13
      vertex 22.2815 10.4209 13
    endloop
  endfacet
  facet normal 0.951057 -0.309017 0
    outer loop
      vertex 22.2815 10.4209 58
      vertex 21.6355 8.43263 58
      vertex 22.2815 10.4209 13
    endloop
  endfacet
  facet normal 0.866025 -0.5 0
    outer loop
      vertex 20.5902 6.62215 58
      vertex 20.5902 6.62215 13
      vertex 21.6355 8.43263 13
    endloop
  endfacet
  facet normal 0.866025 -0.5 0
    outer loop
      vertex 21.6355 8.43263 58
      vertex 20.5902 6.62215 58
      vertex 21.6355 8.43263 13
    endloop
  endfacet
  facet normal 0.743145 -0.669131 0
    outer loop
      vertex 19.1913 5.06855 58
      vertex 19.1913 5.06855 13
      vertex 20.5902 6.62215 13
    endloop
  endfacet
  facet normal 0.743145 -0.669131 0
    outer loop
      vertex 20.5902 6.62215 58
      vertex 19.1913 5.06855 58
      vertex 20.5902 6.62215 13
    endloop
  endfacet
  facet normal 0.587785 -0.809017 0
    outer loop
      vertex 17.5 3.83975 58
      vertex 17.5 3.83975 13
      vertex 19.1913 5.06855 13
    endloop
  endfacet
  facet normal 0.587785 -0.809017 0
    outer loop
      vertex 19.1913 5.06855 58
      vertex 17.5 3.83975 58
      vertex 19.1913 5.06855 13
    endloop
  endfacet
  facet normal 0.406737 -0.913545 0
    outer loop
      vertex 15.5902 2.98944 58
      vertex 15.5902 2.98944 13
      vertex 17.5 3.83975 13
    endloop
  endfacet
  facet normal 0.406737 -0.913545 0
    outer loop
      vertex 17.5 3.83975 58
      vertex 15.5902 2.98944 58
      vertex 17.5 3.83975 13
    endloop
  endfacet
  facet normal 0.207912 -0.978148 0
    outer loop
      vertex 13.5453 2.55478 58
      vertex 13.5453 2.55478 13
      vertex 15.5902 2.98944 13
    endloop
  endfacet
  facet normal 0.207912 -0.978148 0
    outer loop
      vertex 15.5902 2.98944 58
      vertex 13.5453 2.55478 58
      vertex 15.5902 2.98944 13
    endloop
  endfacet
  facet normal 0 -1 0
    outer loop
      vertex 11.4547 2.55478 58
      vertex 11.4547 2.55478 13
      vertex 13.5453 2.55478 13
    endloop
  endfacet
  facet normal 0 -1 0
    outer loop
      vertex 13.5453 2.55478 58
      vertex 11.4547 2.55478 58
      vertex 13.5453 2.55478 13
    endloop
  endfacet
  facet normal -0.207912 -0.978148 0
    outer loop
      vertex 9.40983 2.98944 58
      vertex 9.40983 2.98944 13
      vertex 11.4547 2.55478 13
    endloop
  endfacet
  facet normal -0.207912 -0.978148 0
    outer loop
      vertex 11.4547 2.55478 58
      vertex 9.40983 2.98944 58
      vertex 11.4547 2.55478 13
    endloop
  endfacet
  facet normal -0.406737 -0.913545 0
    outer loop
      vertex 7.5 3.83975 58
      vertex 7.5 3.83975 13
      vertex 9.40983 2.98944 13
    endloop
  endfacet
  facet normal -0.406737 -0.913545 0
    outer loop
      vertex 9.40983 2.98944 58
      vertex 7.5 3.83975 58
      vertex 9.40983 2.98944 13
    endloop
  endfacet
  facet normal -0.587785 -0.809017 0
    outer loop
      vertex 5.80869 5.06855 58
      vertex 5.80869 5.06855 13
      vertex 7.5 3.83975 13
    endloop
  endfacet
  facet normal -0.587785 -0.809017 0
    outer loop
      vertex 7.5 3.83975 58
      vertex 5.80869 5.06855 58
      vertex 7.5 3.83975 13
    endloop
  endfacet
  facet normal -0.743145 -0.669131 0
    outer loop
      vertex 4.40983 6.62215 13
      vertex 5.80869 5.06855 13
      vertex 4.40983 6.62215 58
    endloop
  endfacet
  facet normal -0.743145 -0.669131 0
    outer loop
      vertex 4.40983 6.62215 58
      vertex 5.80869 5.06855 13
      vertex 5.80869 5.06855 58
    endloop
  endfacet
  facet normal -0.866025 -0.5 0
    outer loop
      vertex 3.36454 8.43263 13
      vertex 4.40983 6.62215 13
      vertex 3.36454 8.43263 58
    endloop
  endfacet
  facet normal -0.866025 -0.5 0
    outer loop
      vertex 3.36454 8.43263 58
      vertex 4.40983 6.62215 13
      vertex 4.40983 6.62215 58
    endloop
  endfacet
  facet normal -0.951057 -0.309017 0
    outer loop
      vertex 2.71852 10.4209 13
      vertex 3.36454 8.43263 13
      vertex 2.71852 10.4209 28.5
    endloop
  endfacet
  facet normal -0.951057 -0.309017 0
    outer loop
      vertex 3.09897 9.25 31.5
      vertex 3.36454 8.43263 13
      vertex 3.36454 8.43263 58
    endloop
  endfacet
  facet normal -0.951057 -0.309017 0
    outer loop
      vertex 2.71852 10.4209 31.5
      vertex 3.36454 8.43263 58
      vertex 2.71852 10.4209 58
    endloop
  endfacet
  facet normal -0.951057 -0.309017 0
    outer loop
      vertex 3.09897 9.25 28.5
      vertex 3.36454 8.43263 13
      vertex 3.09897 9.25 31.5
    endloop
  endfacet
  facet normal -0.951057 -0.309017 0
    outer loop
      vertex 2.71852 10.4209 28.5
      vertex 3.36454 8.43263 13
      vertex 3.09897 9.25 28.5
    endloop
  endfacet
  facet normal -0.951057 -0.309017 0
    outer loop
      vertex 3.09897 9.25 31.5
      vertex 3.36454 8.43263 58
      vertex 2.71852 10.4209 31.5
    endloop
  endfacet
  facet normal 0 0 -1
    outer loop
      vertex 3.26143 16.25 31.5
      vertex 3.78428 16.25 31.5
      vertex 2.71852 14.5791 31.5
    endloop
  endfacet
  facet normal 0 0 -1
    outer loop
      vertex 2.71852 14.5791 31.5
      vertex 3.78428 16.25 31.5
      vertex 3.2076 14.4752 31.5
    endloop
  endfacet
  facet normal 0 0 -1
    outer loop
      vertex 2.71852 14.5791 31.5
      vertex 3.2076 14.4752 31.5
      vertex 3 12.5 31.5
    endloop
  endfacet
  facet normal 0 0 -1
    outer loop
      vertex 3 12.5 31.5
      vertex 3.2076 10.5248 31.5
      vertex 2.71852 14.5791 31.5
    endloop
  endfacet
  facet normal 0 0 -1
    outer loop
      vertex 3.2076 10.5248 31.5
      vertex 3.62182 9.25 31.5
      vertex 3.09897 9.25 31.5
    endloop
  endfacet
  facet normal 0 0 -1
    outer loop
      vertex 3.2076 10.5248 31.5
      vertex 3.09897 9.25 31.5
      vertex 2.71852 14.5791 31.5
    endloop
  endfacet
  facet normal 0 0 -1
    outer loop
      vertex 2.71852 14.5791 31.5
      vertex 3.09897 9.25 31.5
      vertex 2.71852 10.4209 31.5
    endloop
  endfacet
  facet normal 0 0 -1
    outer loop
      vertex 2.71852 14.5791 31.5
      vertex 2.71852 10.4209 31.5
      vertex 2.5 12.5 31.5
    endloop
  endfacet
  facet normal 0 0 -1
    outer loop
      vertex 2.5 12.5 13
      vertex 2.71852 14.5791 13
      vertex 2.71852 10.4209 13
    endloop
  endfacet
  facet normal 0 0 -1
    outer loop
      vertex 2.71852 10.4209 13
      vertex 2.71852 14.5791 13
      vertex 3.36454 16.5674 13
    endloop
  endfacet
  facet normal 0 0 -1
    outer loop
      vertex 3.82132 16.364 13
      vertex 3.36454 16.5674 13
      vertex 4.40983 18.3779 13
    endloop
  endfacet
  facet normal 0 0 -1
    outer loop
      vertex 4.81434 18.084 13
      vertex 4.40983 18.3779 13
      vertex 5.80869 19.9314 13
    endloop
  endfacet
  facet normal 0 0 -1
    outer loop
      vertex 6.14326 19.5599 13
      vertex 5.80869 19.9314 13
      vertex 7.5 21.1603 13
    endloop
  endfacet
  facet normal 0 0 -1
    outer loop
      vertex 7.75 20.7272 13
      vertex 7.5 21.1603 13
      vertex 9.40983 22.0106 13
    endloop
  endfacet
  facet normal 0 0 -1
    outer loop
      vertex 9.56434 21.535 13
      vertex 9.40983 22.0106 13
      vertex 11.4547 22.4452 13
    endloop
  endfacet
  facet normal 0 0 -1
    outer loop
      vertex 11.507 21.948 13
      vertex 11.4547 22.4452 13
      vertex 13.5453 22.4452 13
    endloop
  endfacet
  facet normal 0 0 -1
    outer loop
      vertex 13.493 21.948 13
      vertex 13.5453 22.4452 13
      vertex 15.5902 22.0106 13
    endloop
  endfacet
  facet normal 0 0 -1
    outer loop
      vertex 15.4357 21.535 13
      vertex 15.5902 22.0106 13
      vertex 17.5 21.1603 13
    endloop
  endfacet
  facet normal 0 0 -1
    outer loop
      vertex 17.25 20.7272 13
      vertex 17.5 21.1603 13
      vertex 19.1913 19.9314 13
    endloop
  endfacet
  facet normal 0 0 -1
    outer loop
      vertex 18.8567 19.5599 13
      vertex 19.1913 19.9314 13
      vertex 20.5902 18.3779 13
    endloop
  endfacet
  facet normal 0 0 -1
    outer loop
      vertex 20.1857 18.084 13
      vertex 20.5902 18.3779 13
      vertex 21.6355 16.5674 13
    endloop
  endfacet
  facet normal 0 0 -1
    outer loop
      vertex 21.1787 16.364 13
      vertex 21.6355 16.5674 13
      vertex 22.2815 14.5791 13
    endloop
  endfacet
  facet normal 0 0 -1
    outer loop
      vertex 22 12.5 13
      vertex 22.2815 14.5791 13
      vertex 22.5 12.5 13
    endloop
  endfacet
  facet normal 0 0 -1
    outer loop
      vertex 21.7924 10.5248 13
      vertex 22.5 12.5 13
      vertex 22.2815 10.4209 13
    endloop
  endfacet
  facet normal 0 0 -1
    outer loop
      vertex 21.1787 8.636 13
      vertex 22.2815 10.4209 13
      vertex 21.6355 8.43263 13
    endloop
  endfacet
  facet normal 0 0 -1
    outer loop
      vertex 20.1857 6.91604 13
      vertex 21.6355 8.43263 13
      vertex 20.5902 6.62215 13
    endloop
  endfacet
  facet normal 0 0 -1
    outer loop
      vertex 18.8567 5.44012 13
      vertex 20.5902 6.62215 13
      vertex 19.1913 5.06855 13
    endloop
  endfacet
  facet normal 0 0 -1
    outer loop
      vertex 17.25 4.27276 13
      vertex 19.1913 5.06855 13
      vertex 17.5 3.83975 13
    endloop
  endfacet
  facet normal 0 0 -1
    outer loop
      vertex 15.4357 3.46496 13
      vertex 17.5 3.83975 13
      vertex 15.5902 2.98944 13
    endloop
  endfacet
  facet normal 0 0 -1
    outer loop
      vertex 13.493 3.05204 13
      vertex 15.5902 2.98944 13
      vertex 13.5453 2.55478 13
    endloop
  endfacet
  facet normal 0 0 -1
    outer loop
      vertex 11.507 3.05204 13
      vertex 13.5453 2.55478 13
      vertex 11.4547 2.55478 13
    endloop
  endfacet
  facet normal 0 0 -1
    outer loop
      vertex 9.56434 3.46496 13
      vertex 11.4547 2.55478 13
      vertex 9.40983 2.98944 13
    endloop
  endfacet
  facet normal 0 0 -1
    outer loop
      vertex 7.75 4.27276 13
      vertex 9.40983 2.98944 13
      vertex 7.5 3.83975 13
    endloop
  endfacet
  facet normal 0 0 -1
    outer loop
      vertex 4.81434 6.91604 13
      vertex 7.5 3.83975 13
      vertex 5.80869 5.06855 13
    endloop
  endfacet
  facet normal 0 0 -1
    outer loop
      vertex 2.71852 10.4209 13
      vertex 5.80869 5.06855 13
      vertex 4.40983 6.62215 13
    endloop
  endfacet
  facet normal 0 0 -1
    outer loop
      vertex 2.71852 10.4209 13
      vertex 4.40983 6.62215 13
      vertex 3.36454 8.43263 13
    endloop
  endfacet
  facet normal 0 0 -1
    outer loop
      vertex 2.71852 10.4209 13
      vertex 3.36454 16.5674 13
      vertex 3 12.5 13
    endloop
  endfacet
  facet normal 0 0 -1
    outer loop
      vertex 11.507 3.05204 13
      vertex 11.4547 2.55478 13
      vertex 9.56434 3.46496 13
    endloop
  endfacet
  facet normal 0 0 -1
    outer loop
      vertex 3.82132 8.636 13
      vertex 2.71852 10.4209 13
      vertex 3.2076 10.5248 13
    endloop
  endfacet
  facet normal 0 0 -1
    outer loop
      vertex 7.75 4.27276 13
      vertex 7.5 3.83975 13
      vertex 6.14326 5.44012 13
    endloop
  endfacet
  facet normal 0 0 -1
    outer loop
      vertex 2.71852 10.4209 13
      vertex 3.82132 8.636 13
      vertex 5.80869 5.06855 13
    endloop
  endfacet
  facet normal 0 0 -1
    outer loop
      vertex 6.14326 5.44012 13
      vertex 7.5 3.83975 13
      vertex 4.81434 6.91604 13
    endloop
  endfacet
  facet normal 0 0 -1
    outer loop
      vertex 3.82132 8.636 13
      vertex 4.81434 6.91604 13
      vertex 5.80869 5.06855 13
    endloop
  endfacet
  facet normal 0 0 -1
    outer loop
      vertex 21.7924 14.4752 13
      vertex 22.2815 14.5791 13
      vertex 22 12.5 13
    endloop
  endfacet
  facet normal 0 0 -1
    outer loop
      vertex 20.1857 18.084 13
      vertex 21.6355 16.5674 13
      vertex 21.1787 16.364 13
    endloop
  endfacet
  facet normal 0 0 -1
    outer loop
      vertex 21.1787 16.364 13
      vertex 22.2815 14.5791 13
      vertex 21.7924 14.4752 13
    endloop
  endfacet
  facet normal 0 0 -1
    outer loop
      vertex 22 12.5 13
      vertex 22.5 12.5 13
      vertex 21.7924 10.5248 13
    endloop
  endfacet
  facet normal 0 0 -1
    outer loop
      vertex 21.7924 10.5248 13
      vertex 22.2815 10.4209 13
      vertex 21.1787 8.636 13
    endloop
  endfacet
  facet normal 0 0 -1
    outer loop
      vertex 21.1787 8.636 13
      vertex 21.6355 8.43263 13
      vertex 20.1857 6.91604 13
    endloop
  endfacet
  facet normal 0 0 -1
    outer loop
      vertex 20.1857 6.91604 13
      vertex 20.5902 6.62215 13
      vertex 18.8567 5.44012 13
    endloop
  endfacet
  facet normal 0 0 -1
    outer loop
      vertex 18.8567 5.44012 13
      vertex 19.1913 5.06855 13
      vertex 17.25 4.27276 13
    endloop
  endfacet
  facet normal 0 0 -1
    outer loop
      vertex 17.25 4.27276 13
      vertex 17.5 3.83975 13
      vertex 15.4357 3.46496 13
    endloop
  endfacet
  facet normal 0 0 -1
    outer loop
      vertex 15.4357 3.46496 13
      vertex 15.5902 2.98944 13
      vertex 13.493 3.05204 13
    endloop
  endfacet
  facet normal 0 0 -1
    outer loop
      vertex 13.493 3.05204 13
      vertex 13.5453 2.55478 13
      vertex 11.507 3.05204 13
    endloop
  endfacet
  facet normal 0 0 -1
    outer loop
      vertex 3.2076 14.4752 13
      vertex 3.36454 16.5674 13
      vertex 3.82132 16.364 13
    endloop
  endfacet
  facet normal 0 0 -1
    outer loop
      vertex 3 12.5 13
      vertex 3.36454 16.5674 13
      vertex 3.2076 14.4752 13
    endloop
  endfacet
  facet normal 0 0 -1
    outer loop
      vertex 3.2076 10.5248 13
      vertex 2.71852 10.4209 13
      vertex 3 12.5 13
    endloop
  endfacet
  facet normal 0 0 -1
    outer loop
      vertex 3.82132 16.364 13
      vertex 4.40983 18.3779 13
      vertex 4.81434 18.084 13
    endloop
  endfacet
  facet normal 0 0 -1
    outer loop
      vertex 4.81434 18.084 13
      vertex 5.80869 19.9314 13
      vertex 6.14326 19.5599 13
    endloop
  endfacet
  facet normal 0 0 -1
    outer loop
      vertex 6.14326 19.5599 13
      vertex 7.5 21.1603 13
      vertex 7.75 20.7272 13
    endloop
  endfacet
  facet normal 0 0 -1
    outer loop
      vertex 7.75 20.7272 13
      vertex 9.40983 22.0106 13
      vertex 9.56434 21.535 13
    endloop
  endfacet
  facet normal 0 0 -1
    outer loop
      vertex 9.56434 21.535 13
      vertex 11.4547 22.4452 13
      vertex 11.507 21.948 13
    endloop
  endfacet
  facet normal 0 0 -1
    outer loop
      vertex 11.507 21.948 13
      vertex 13.5453 22.4452 13
      vertex 13.493 21.948 13
    endloop
  endfacet
  facet normal 0 0 -1
    outer loop
      vertex 13.493 21.948 13
      vertex 15.5902 22.0106 13
      vertex 15.4357 21.535 13
    endloop
  endfacet
  facet normal 0 0 -1
    outer loop
      vertex 15.4357 21.535 13
      vertex 17.5 21.1603 13
      vertex 17.25 20.7272 13
    endloop
  endfacet
  facet normal 0 0 -1
    outer loop
      vertex 17.25 20.7272 13
      vertex 19.1913 19.9314 13
      vertex 18.8567 19.5599 13
    endloop
  endfacet
  facet normal 0 0 -1
    outer loop
      vertex 18.8567 19.5599 13
      vertex 20.5902 18.3779 13
      vertex 20.1857 18.084 13
    endloop
  endfacet
  facet normal 0 0 -1
    outer loop
      vertex 9.56434 3.46496 13
      vertex 9.40983 2.98944 13
      vertex 7.75 4.27276 13
    endloop
  endfacet
  facet normal 0 -1 0
    outer loop
      vertex 3.78428 16.25 28.5
      vertex 3.78428 16.25 31.5
      vertex 3.26143 16.25 31.5
    endloop
  endfacet
  facet normal 0 -1 0
    outer loop
      vertex 3.26143 16.25 28.5
      vertex 3.78428 16.25 28.5
      vertex 3.26143 16.25 31.5
    endloop
  endfacet
  facet normal 0 0 1
    outer loop
      vertex 2.71852 10.4209 28.5
      vertex 3.09897 9.25 28.5
      vertex 3.62182 9.25 28.5
    endloop
  endfacet
  facet normal 0 0 1
    outer loop
      vertex 3 12.5 28.5
      vertex 2.71852 10.4209 28.5
      vertex 3.2076 10.5248 28.5
    endloop
  endfacet
  facet normal 0 0 1
    outer loop
      vertex 3.2076 10.5248 28.5
      vertex 2.71852 10.4209 28.5
      vertex 3.62182 9.25 28.5
    endloop
  endfacet
  facet normal 0 0 1
    outer loop
      vertex 3.2076 14.4752 28.5
      vertex 2.71852 10.4209 28.5
      vertex 3 12.5 28.5
    endloop
  endfacet
  facet normal 0 0 1
    outer loop
      vertex 3.26143 16.25 28.5
      vertex 2.71852 10.4209 28.5
      vertex 3.2076 14.4752 28.5
    endloop
  endfacet
  facet normal 0 0 1
    outer loop
      vertex 3.26143 16.25 28.5
      vertex 3.2076 14.4752 28.5
      vertex 3.78428 16.25 28.5
    endloop
  endfacet
  facet normal 0 0 1
    outer loop
      vertex 2.71852 14.5791 28.5
      vertex 2.71852 10.4209 28.5
      vertex 3.26143 16.25 28.5
    endloop
  endfacet
  facet normal 0 0 1
    outer loop
      vertex 2.5 12.5 28.5
      vertex 2.71852 10.4209 28.5
      vertex 2.71852 14.5791 28.5
    endloop
  endfacet
  facet normal -0.994522 0.104528 0
    outer loop
      vertex 2.5 12.5 13
      vertex 2.5 12.5 28.5
      vertex 2.71852 14.5791 13
    endloop
  endfacet
  facet normal -0.994522 0.104528 0
    outer loop
      vertex 2.71852 14.5791 13
      vertex 2.5 12.5 28.5
      vertex 2.71852 14.5791 28.5
    endloop
  endfacet
  facet normal -0.994522 -0.104528 0
    outer loop
      vertex 2.5 12.5 13
      vertex 2.71852 10.4209 13
      vertex 2.5 12.5 28.5
    endloop
  endfacet
  facet normal -0.994522 -0.104528 0
    outer loop
      vertex 2.5 12.5 28.5
      vertex 2.71852 10.4209 13
      vertex 2.71852 10.4209 28.5
    endloop
  endfacet
  facet normal 0 1 0
    outer loop
      vertex 3.62182 9.25 31.5
      vertex 3.62182 9.25 28.5
      vertex 3.09897 9.25 31.5
    endloop
  endfacet
  facet normal 0 1 0
    outer loop
      vertex 3.09897 9.25 31.5
      vertex 3.62182 9.25 28.5
      vertex 3.09897 9.25 28.5
    endloop
  endfacet
  facet normal 0.951057 0.309017 0
    outer loop
      vertex 3.82132 8.636 58
      vertex 3.62182 9.25 28.5
      vertex 3.62182 9.25 31.5
    endloop
  endfacet
  facet normal 0.951057 0.309017 0
    outer loop
      vertex 3.2076 10.5248 28.5
      vertex 3.62182 9.25 28.5
      vertex 3.82132 8.636 13
    endloop
  endfacet
  facet normal 0.951057 0.309017 0
    outer loop
      vertex 3.2076 10.5248 31.5
      vertex 3.2076 10.5248 58
      vertex 3.62182 9.25 31.5
    endloop
  endfacet
  facet normal 0.951057 0.309017 0
    outer loop
      vertex 3.2076 10.5248 58
      vertex 3.82132 8.636 58
      vertex 3.62182 9.25 31.5
    endloop
  endfacet
  facet normal 0.951057 0.309017 0
    outer loop
      vertex 3.82132 8.636 58
      vertex 3.82132 8.636 13
      vertex 3.62182 9.25 28.5
    endloop
  endfacet
  facet normal 0.951057 0.309017 0
    outer loop
      vertex 3.82132 8.636 13
      vertex 3.2076 10.5248 13
      vertex 3.2076 10.5248 28.5
    endloop
  endfacet
  facet normal 0.994522 0.104529 0
    outer loop
      vertex 3 12.5 58
      vertex 3.2076 10.5248 58
      vertex 3.2076 10.5248 31.5
    endloop
  endfacet
  facet normal 0.994522 0.104529 0
    outer loop
      vertex 3 12.5 31.5
      vertex 3 12.5 58
      vertex 3.2076 10.5248 31.5
    endloop
  endfacet
  facet normal 0.994522 -0.104529 0
    outer loop
      vertex 3.2076 14.4752 31.5
      vertex 3.2076 14.4752 58
      vertex 3 12.5 58
    endloop
  endfacet
  facet normal 0.994522 -0.104529 0
    outer loop
      vertex 3 12.5 31.5
      vertex 3.2076 14.4752 31.5
      vertex 3 12.5 58
    endloop
  endfacet
  facet normal 0.951057 -0.309017 0
    outer loop
      vertex 3.78428 16.25 31.5
      vertex 3.82132 16.364 58
      vertex 3.2076 14.4752 58
    endloop
  endfacet
  facet normal 0.951057 -0.309017 0
    outer loop
      vertex 3.82132 16.364 13
      vertex 3.82132 16.364 58
      vertex 3.78428 16.25 31.5
    endloop
  endfacet
  facet normal 0.951057 -0.309017 0
    outer loop
      vertex 3.78428 16.25 28.5
      vertex 3.2076 14.4752 28.5
      vertex 3.82132 16.364 13
    endloop
  endfacet
  facet normal 0.951057 -0.309017 0
    outer loop
      vertex 3.82132 16.364 13
      vertex 3.78428 16.25 31.5
      vertex 3.78428 16.25 28.5
    endloop
  endfacet
  facet normal 0.951057 -0.309017 0
    outer loop
      vertex 3.2076 14.4752 13
      vertex 3.82132 16.364 13
      vertex 3.2076 14.4752 28.5
    endloop
  endfacet
  facet normal 0.951057 -0.309017 0
    outer loop
      vertex 3.2076 14.4752 31.5
      vertex 3.78428 16.25 31.5
      vertex 3.2076 14.4752 58
    endloop
  endfacet
  facet normal 0.994522 -0.104529 0
    outer loop
      vertex 3.2076 14.4752 13
      vertex 3.2076 14.4752 28.5
      vertex 3 12.5 28.5
    endloop
  endfacet
  facet normal 0.994522 -0.104529 0
    outer loop
      vertex 3 12.5 13
      vertex 3.2076 14.4752 13
      vertex 3 12.5 28.5
    endloop
  endfacet
  facet normal 0.994522 0.104529 0
    outer loop
      vertex 3 12.5 28.5
      vertex 3.2076 10.5248 28.5
      vertex 3.2076 10.5248 13
    endloop
  endfacet
  facet normal 0.994522 0.104529 0
    outer loop
      vertex 3 12.5 13
      vertex 3 12.5 28.5
      vertex 3.2076 10.5248 13
    endloop
  endfacet
  facet normal 0.866025 -0.5 0
    outer loop
      vertex 4.81434 18.084 13
      vertex 4.81434 18.084 58
      vertex 3.82132 16.364 58
    endloop
  endfacet
  facet normal 0.866025 -0.5 0
    outer loop
      vertex 3.82132 16.364 13
      vertex 4.81434 18.084 13
      vertex 3.82132 16.364 58
    endloop
  endfacet
  facet normal 0.743145 -0.66913 0
    outer loop
      vertex 6.14326 19.5599 13
      vertex 6.14326 19.5599 58
      vertex 4.81434 18.084 58
    endloop
  endfacet
  facet normal 0.743145 -0.66913 0
    outer loop
      vertex 4.81434 18.084 13
      vertex 6.14326 19.5599 13
      vertex 4.81434 18.084 58
    endloop
  endfacet
  facet normal 0.587785 -0.809017 0
    outer loop
      vertex 7.75 20.7272 13
      vertex 7.75 20.7272 58
      vertex 6.14326 19.5599 58
    endloop
  endfacet
  facet normal 0.587785 -0.809017 0
    outer loop
      vertex 6.14326 19.5599 13
      vertex 7.75 20.7272 13
      vertex 6.14326 19.5599 58
    endloop
  endfacet
  facet normal 0.406737 -0.913545 0
    outer loop
      vertex 9.56434 21.535 13
      vertex 9.56434 21.535 58
      vertex 7.75 20.7272 58
    endloop
  endfacet
  facet normal 0.406737 -0.913545 0
    outer loop
      vertex 7.75 20.7272 13
      vertex 9.56434 21.535 13
      vertex 7.75 20.7272 58
    endloop
  endfacet
  facet normal 0.207912 -0.978148 0
    outer loop
      vertex 11.507 21.948 13
      vertex 11.507 21.948 58
      vertex 9.56434 21.535 58
    endloop
  endfacet
  facet normal 0.207912 -0.978148 0
    outer loop
      vertex 9.56434 21.535 13
      vertex 11.507 21.948 13
      vertex 9.56434 21.535 58
    endloop
  endfacet
  facet normal 0 -1 0
    outer loop
      vertex 13.493 21.948 13
      vertex 13.493 21.948 58
      vertex 11.507 21.948 58
    endloop
  endfacet
  facet normal 0 -1 0
    outer loop
      vertex 11.507 21.948 13
      vertex 13.493 21.948 13
      vertex 11.507 21.948 58
    endloop
  endfacet
  facet normal -0.207912 -0.978148 0
    outer loop
      vertex 15.4357 21.535 13
      vertex 15.4357 21.535 58
      vertex 13.493 21.948 58
    endloop
  endfacet
  facet normal -0.207912 -0.978148 0
    outer loop
      vertex 13.493 21.948 13
      vertex 15.4357 21.535 13
      vertex 13.493 21.948 58
    endloop
  endfacet
  facet normal -0.406737 -0.913545 0
    outer loop
      vertex 17.25 20.7272 13
      vertex 17.25 20.7272 58
      vertex 15.4357 21.535 58
    endloop
  endfacet
  facet normal -0.406737 -0.913545 0
    outer loop
      vertex 15.4357 21.535 13
      vertex 17.25 20.7272 13
      vertex 15.4357 21.535 58
    endloop
  endfacet
  facet normal -0.587785 -0.809017 0
    outer loop
      vertex 18.8567 19.5599 13
      vertex 18.8567 19.5599 58
      vertex 17.25 20.7272 58
    endloop
  endfacet
  facet normal -0.587785 -0.809017 0
    outer loop
      vertex 17.25 20.7272 13
      vertex 18.8567 19.5599 13
      vertex 17.25 20.7272 58
    endloop
  endfacet
  facet normal -0.743145 -0.66913 0
    outer loop
      vertex 20.1857 18.084 58
      vertex 18.8567 19.5599 58
      vertex 20.1857 18.084 13
    endloop
  endfacet
  facet normal -0.743145 -0.66913 0
    outer loop
      vertex 20.1857 18.084 13
      vertex 18.8567 19.5599 58
      vertex 18.8567 19.5599 13
    endloop
  endfacet
  facet normal -0.866025 -0.5 0
    outer loop
      vertex 21.1787 16.364 58
      vertex 20.1857 18.084 58
      vertex 21.1787 16.364 13
    endloop
  endfacet
  facet normal -0.866025 -0.5 0
    outer loop
      vertex 21.1787 16.364 13
      vertex 20.1857 18.084 58
      vertex 20.1857 18.084 13
    endloop
  endfacet
  facet normal -0.951057 -0.309017 0
    outer loop
      vertex 21.7924 14.4752 58
      vertex 21.1787 16.364 58
      vertex 21.7924 14.4752 13
    endloop
  endfacet
  facet normal -0.951057 -0.309017 0
    outer loop
      vertex 21.7924 14.4752 13
      vertex 21.1787 16.364 58
      vertex 21.1787 16.364 13
    endloop
  endfacet
  facet normal -0.994522 -0.104529 0
    outer loop
      vertex 22 12.5 58
      vertex 21.7924 14.4752 58
      vertex 22 12.5 13
    endloop
  endfacet
  facet normal -0.994522 -0.104529 0
    outer loop
      vertex 22 12.5 13
      vertex 21.7924 14.4752 58
      vertex 21.7924 14.4752 13
    endloop
  endfacet
  facet normal -0.994522 0.104529 0
    outer loop
      vertex 22 12.5 58
      vertex 22 12.5 13
      vertex 21.7924 10.5248 58
    endloop
  endfacet
  facet normal -0.994522 0.104529 0
    outer loop
      vertex 21.7924 10.5248 58
      vertex 22 12.5 13
      vertex 21.7924 10.5248 13
    endloop
  endfacet
  facet normal -0.951057 0.309017 0
    outer loop
      vertex 21.7924 10.5248 58
      vertex 21.7924 10.5248 13
      vertex 21.1787 8.636 58
    endloop
  endfacet
  facet normal -0.951057 0.309017 0
    outer loop
      vertex 21.1787 8.636 58
      vertex 21.7924 10.5248 13
      vertex 21.1787 8.636 13
    endloop
  endfacet
  facet normal -0.866025 0.5 0
    outer loop
      vertex 21.1787 8.636 58
      vertex 21.1787 8.636 13
      vertex 20.1857 6.91604 58
    endloop
  endfacet
  facet normal -0.866025 0.5 0
    outer loop
      vertex 20.1857 6.91604 58
      vertex 21.1787 8.636 13
      vertex 20.1857 6.91604 13
    endloop
  endfacet
  facet normal -0.743145 0.66913 0
    outer loop
      vertex 20.1857 6.91604 58
      vertex 20.1857 6.91604 13
      vertex 18.8567 5.44012 58
    endloop
  endfacet
  facet normal -0.743145 0.66913 0
    outer loop
      vertex 18.8567 5.44012 58
      vertex 20.1857 6.91604 13
      vertex 18.8567 5.44012 13
    endloop
  endfacet
  facet normal -0.587785 0.809017 0
    outer loop
      vertex 18.8567 5.44012 58
      vertex 18.8567 5.44012 13
      vertex 17.25 4.27276 58
    endloop
  endfacet
  facet normal -0.587785 0.809017 0
    outer loop
      vertex 17.25 4.27276 58
      vertex 18.8567 5.44012 13
      vertex 17.25 4.27276 13
    endloop
  endfacet
  facet normal -0.406737 0.913545 0
    outer loop
      vertex 17.25 4.27276 58
      vertex 17.25 4.27276 13
      vertex 15.4357 3.46496 58
    endloop
  endfacet
  facet normal -0.406737 0.913545 0
    outer loop
      vertex 15.4357 3.46496 58
      vertex 17.25 4.27276 13
      vertex 15.4357 3.46496 13
    endloop
  endfacet
  facet normal -0.207912 0.978148 0
    outer loop
      vertex 15.4357 3.46496 58
      vertex 15.4357 3.46496 13
      vertex 13.493 3.05204 58
    endloop
  endfacet
  facet normal -0.207912 0.978148 0
    outer loop
      vertex 13.493 3.05204 58
      vertex 15.4357 3.46496 13
      vertex 13.493 3.05204 13
    endloop
  endfacet
  facet normal 0 1 0
    outer loop
      vertex 13.493 3.05204 58
      vertex 13.493 3.05204 13
      vertex 11.507 3.05204 58
    endloop
  endfacet
  facet normal 0 1 0
    outer loop
      vertex 11.507 3.05204 58
      vertex 13.493 3.05204 13
      vertex 11.507 3.05204 13
    endloop
  endfacet
  facet normal 0.207912 0.978148 0
    outer loop
      vertex 11.507 3.05204 58
      vertex 11.507 3.05204 13
      vertex 9.56434 3.46496 58
    endloop
  endfacet
  facet normal 0.207912 0.978148 0
    outer loop
      vertex 9.56434 3.46496 58
      vertex 11.507 3.05204 13
      vertex 9.56434 3.46496 13
    endloop
  endfacet
  facet normal 0.406737 0.913545 0
    outer loop
      vertex 9.56434 3.46496 58
      vertex 9.56434 3.46496 13
      vertex 7.75 4.27276 58
    endloop
  endfacet
  facet normal 0.406737 0.913545 0
    outer loop
      vertex 7.75 4.27276 58
      vertex 9.56434 3.46496 13
      vertex 7.75 4.27276 13
    endloop
  endfacet
  facet normal 0.587785 0.809017 0
    outer loop
      vertex 7.75 4.27276 58
      vertex 7.75 4.27276 13
      vertex 6.14326 5.44012 58
    endloop
  endfacet
  facet normal 0.587785 0.809017 0
    outer loop
      vertex 6.14326 5.44012 58
      vertex 7.75 4.27276 13
      vertex 6.14326 5.44012 13
    endloop
  endfacet
  facet normal 0.743145 0.66913 0
    outer loop
      vertex 4.81434 6.91604 58
      vertex 6.14326 5.44012 58
      vertex 6.14326 5.44012 13
    endloop
  endfacet
  facet normal 0.743145 0.66913 0
    outer loop
      vertex 4.81434 6.91604 13
      vertex 4.81434 6.91604 58
      vertex 6.14326 5.44012 13
    endloop
  endfacet
  facet normal 0.866025 0.5 0
    outer loop
      vertex 3.82132 8.636 58
      vertex 4.81434 6.91604 58
      vertex 4.81434 6.91604 13
    endloop
  endfacet
  facet normal 0.866025 0.5 0
    outer loop
      vertex 3.82132 8.636 13
      vertex 3.82132 8.636 58
      vertex 4.81434 6.91604 13
    endloop
  endfacet
  facet normal 0 0 -1
    outer loop
      vertex 3 12.5 58
      vertex 3.2076 14.4752 58
      vertex 3.2076 10.5248 58
    endloop
  endfacet
  facet normal 0 0 -1
    outer loop
      vertex 3.2076 10.5248 58
      vertex 3.2076 14.4752 58
      vertex 3.82132 16.364 58
    endloop
  endfacet
  facet normal 0 0 -1
    outer loop
      vertex 3.2076 10.5248 58
      vertex 3.82132 16.364 58
      vertex 4.81434 18.084 58
    endloop
  endfacet
  facet normal 0 0 -1
    outer loop
      vertex 3.2076 10.5248 58
      vertex 4.81434 18.084 58
      vertex 6.14326 19.5599 58
    endloop
  endfacet
  facet normal 0 0 -1
    outer loop
      vertex 3.2076 10.5248 58
      vertex 6.14326 19.5599 58
      vertex 7.75 20.7272 58
    endloop
  endfacet
  facet normal 0 0 -1
    outer loop
      vertex 3.2076 10.5248 58
      vertex 7.75 20.7272 58
      vertex 9.56434 21.535 58
    endloop
  endfacet
  facet normal 0 0 -1
    outer loop
      vertex 3.2076 10.5248 58
      vertex 9.56434 21.535 58
      vertex 11.507 21.948 58
    endloop
  endfacet
  facet normal 0 0 -1
    outer loop
      vertex 3.2076 10.5248 58
      vertex 11.507 21.948 58
      vertex 13.493 21.948 58
    endloop
  endfacet
  facet normal 0 0 -1
    outer loop
      vertex 3.2076 10.5248 58
      vertex 13.493 21.948 58
      vertex 15.4357 21.535 58
    endloop
  endfacet
  facet normal 0 0 -1
    outer loop
      vertex 3.2076 10.5248 58
      vertex 15.4357 21.535 58
      vertex 17.25 20.7272 58
    endloop
  endfacet
  facet normal 0 0 -1
    outer loop
      vertex 3.2076 10.5248 58
      vertex 17.25 20.7272 58
      vertex 18.8567 19.5599 58
    endloop
  endfacet
  facet normal 0 0 -1
    outer loop
      vertex 3.2076 10.5248 58
      vertex 18.8567 19.5599 58
      vertex 20.1857 18.084 58
    endloop
  endfacet
  facet normal 0 0 -1
    outer loop
      vertex 3.2076 10.5248 58
      vertex 20.1857 18.084 58
      vertex 21.1787 16.364 58
    endloop
  endfacet
  facet normal 0 0 -1
    outer loop
      vertex 3.2076 10.5248 58
      vertex 21.1787 16.364 58
      vertex 21.7924 14.4752 58
    endloop
  endfacet
  facet normal 0 0 -1
    outer loop
      vertex 3.2076 10.5248 58
      vertex 21.7924 14.4752 58
      vertex 22 12.5 58
    endloop
  endfacet
  facet normal 0 0 -1
    outer loop
      vertex 3.2076 10.5248 58
      vertex 22 12.5 58
      vertex 21.7924 10.5248 58
    endloop
  endfacet
  facet normal 0 0 -1
    outer loop
      vertex 3.2076 10.5248 58
      vertex 21.7924 10.5248 58
      vertex 21.1787 8.636 58
    endloop
  endfacet
  facet normal 0 0 -1
    outer loop
      vertex 3.2076 10.5248 58
      vertex 21.1787 8.636 58
      vertex 20.1857 6.91604 58
    endloop
  endfacet
  facet normal 0 0 -1
    outer loop
      vertex 3.2076 10.5248 58
      vertex 20.1857 6.91604 58
      vertex 18.8567 5.44012 58
    endloop
  endfacet
  facet normal 0 0 -1
    outer loop
      vertex 3.2076 10.5248 58
      vertex 18.8567 5.44012 58
      vertex 17.25 4.27276 58
    endloop
  endfacet
  facet normal 0 0 -1
    outer loop
      vertex 3.2076 10.5248 58
      vertex 17.25 4.27276 58
      vertex 15.4357 3.46496 58
    endloop
  endfacet
  facet normal 0 0 -1
    outer loop
      vertex 3.2076 10.5248 58
      vertex 15.4357 3.46496 58
      vertex 13.493 3.05204 58
    endloop
  endfacet
  facet normal 0 0 -1
    outer loop
      vertex 3.2076 10.5248 58
      vertex 13.493 3.05204 58
      vertex 11.507 3.05204 58
    endloop
  endfacet
  facet normal 0 0 -1
    outer loop
      vertex 3.2076 10.5248 58
      vertex 11.507 3.05204 58
      vertex 9.56434 3.46496 58
    endloop
  endfacet
  facet normal 0 0 -1
    outer loop
      vertex 3.2076 10.5248 58
      vertex 9.56434 3.46496 58
      vertex 7.75 4.27276 58
    endloop
  endfacet
  facet normal 0 0 -1
    outer loop
      vertex 3.2076 10.5248 58
      vertex 7.75 4.27276 58
      vertex 6.14326 5.44012 58
    endloop
  endfacet
  facet normal 0 0 -1
    outer loop
      vertex 3.2076 10.5248 58
      vertex 6.14326 5.44012 58
      vertex 4.81434 6.91604 58
    endloop
  endfacet
  facet normal 0 0 -1
    outer loop
      vertex 3.2076 10.5248 58
      vertex 4.81434 6.91604 58
      vertex 3.82132 8.636 58
    endloop
  endfacet
endsolid OpenSCAD_Model
